<svg width="174" height="146" viewBox="0 0 174 146" fill="none" xmlns="http://www.w3.org/2000/svg"><path d="M0 4a4 4 0 014-4h166a4 4 0 014 4v30a4 4 0 01-4 4H4a4 4 0 01-4-4V4z" fill="#fff"/><path fill-rule="evenodd" clip-rule="evenodd" d="M170 2H4a2 2 0 00-2 2v30c0 1.1.9 2 2 2h166a2 2 0 002-2V4a2 2 0 00-2-2zM4 0a4 4 0 00-4 4v30a4 4 0 004 4h166a4 4 0 004-4V4a4 4 0 00-4-4H4z" fill="#B4B9D0"/><path d="M0 58a4 4 0 014-4h166a4 4 0 014 4v30a4 4 0 01-4 4H4a4 4 0 01-4-4V58z" fill="#fff"/><path fill-rule="evenodd" clip-rule="evenodd" d="M170 56H4a2 2 0 00-2 2v30c0 1.1.9 2 2 2h166a2 2 0 002-2V58a2 2 0 00-2-2zM4 54a4 4 0 00-4 4v30a4 4 0 004 4h166a4 4 0 004-4V58a4 4 0 00-4-4H4z" fill="#B4B9D0"/><path d="M0 112a4 4 0 014-4h166a4 4 0 014 4v30a4 4 0 01-4 4H4a4 4 0 01-4-4v-30z" fill="#fff"/><path fill-rule="evenodd" clip-rule="evenodd" d="M170 110H4a2 2 0 00-2 2v30c0 1.1.9 2 2 2h166a2 2 0 002-2v-30a2 2 0 00-2-2zM4 108a4 4 0 00-4 4v30a4 4 0 004 4h166a4 4 0 004-4v-30a4 4 0 00-4-4H4z" fill="#B4B9D0"/><path d="M51.18 24v-4.85h2.24L56.8 24h2.06l-4-5.74 3.72-5.46H56.5l-3.12 4.67h-2.2V12.8h-1.83V24h1.82zM58.87 20.16c0 2.66 2.02 4.05 4.16 4.05 2.16 0 4.16-1.4 4.16-4.05 0-2.66-2-4.05-4.16-4.05-2.14 0-4.16 1.4-4.16 4.05zm6.58 0c0 1.5-1 2.48-2.42 2.48-1.44 0-2.43-.98-2.43-2.48s1-2.48 2.43-2.48c1.43 0 2.42.98 2.42 2.48zM70.5 24v-5.2l2.18 3.36h1.02l2.2-3.36V24h1.64v-7.68h-1.73l-2.62 4.05-2.6-4.05h-1.74V24h1.65zM86.23 22.22v-2.75c0-2.32-1.38-3.36-3.56-3.36a9.4 9.4 0 00-2.94.51v1.57c.69-.3 1.63-.59 2.77-.59 1.3 0 2.01.67 2.01 1.63v.27a10.2 10.2 0 00-2-.22c-1.6 0-3.42.6-3.42 2.58 0 1.58 1.3 2.35 2.69 2.35 1.2 0 2.14-.39 2.9-1 .27.63.83.9 1.53.9.38 0 .77-.06 1.09-.19v-1.23c-.16.05-.34.1-.51.1-.3 0-.56-.13-.56-.57zm-3.38-1.74c.54 0 1.2.1 1.66.2v1.29c-.6.6-1.4.91-2.22.91-.77 0-1.44-.38-1.44-1.14 0-.96 1.02-1.26 2-1.26zM90.3 24v-3.09h3.84V24h1.71v-7.68h-1.71v3.09H90.3v-3.09h-1.71V24h1.71zM98.92 26.06V24h6.18v2.06h1.61V22.6h-1.13v-6.27h-6c.03 2.67-.29 4.62-1.22 6.27h-1.05v3.47h1.61zm2.26-8.33h2.67v4.86h-3.7c.64-1.36.96-2.8 1.03-4.86zM114.82 22.22v-2.75c0-2.32-1.38-3.36-3.55-3.36a9.4 9.4 0 00-2.95.51v1.57c.7-.3 1.64-.59 2.77-.59 1.31 0 2.02.67 2.02 1.63v.27a10.2 10.2 0 00-2-.22c-1.6 0-3.43.6-3.43 2.58 0 1.58 1.3 2.35 2.7 2.35 1.2 0 2.14-.39 2.89-1 .27.63.83.9 1.53.9.39 0 .77-.06 1.1-.19v-1.23c-.17.05-.34.1-.52.1-.3 0-.56-.13-.56-.57zm-3.38-1.74c.55 0 1.2.1 1.67.2v1.29c-.61.6-1.41.91-2.23.91-.77 0-1.44-.38-1.44-1.14 0-.96 1.03-1.26 2-1.26zM123.36 13.12l-2.64 1v1.69l2.18-.82v7.36h-2.18V24h5.92v-1.65h-1.93v-9.23h-1.35zM49.18 78v-4.85h2.24L54.8 78h2.06l-4-5.74 3.72-5.46H54.5l-3.12 4.67h-2.2V66.8h-1.83V78h1.82zM56.87 74.16c0 2.66 2.02 4.05 4.16 4.05 2.16 0 4.16-1.4 4.16-4.05 0-2.66-2-4.05-4.16-4.05-2.14 0-4.16 1.4-4.16 4.05zm6.58 0c0 1.5-1 2.48-2.42 2.48-1.44 0-2.43-.98-2.43-2.48s1-2.48 2.43-2.48c1.43 0 2.42.98 2.42 2.48zM68.5 78v-5.2l2.18 3.36h1.02l2.2-3.36V78h1.64v-7.68h-1.73l-2.62 4.05-2.6-4.05h-1.74V78h1.65zM84.23 76.22v-2.75c0-2.32-1.38-3.36-3.56-3.36a9.4 9.4 0 00-2.94.51v1.57c.69-.3 1.63-.59 2.77-.59 1.3 0 2.01.67 2.01 1.63v.27a10.2 10.2 0 00-2-.22c-1.6 0-3.42.6-3.42 2.58 0 1.58 1.3 2.35 2.69 2.35 1.2 0 2.14-.39 2.9-1 .27.63.83.9 1.53.9.38 0 .77-.06 1.09-.19v-1.23c-.16.05-.34.1-.51.1-.3 0-.56-.13-.56-.57zm-3.38-1.74c.54 0 1.2.1 1.66.2v1.29c-.6.6-1.4.91-2.22.91-.77 0-1.44-.38-1.44-1.14 0-.96 1.02-1.26 2-1.26zM88.3 78v-3.09h3.84V78h1.71v-7.68h-1.71v3.09H88.3v-3.09h-1.71V78h1.71zM96.92 80.06V78h6.18v2.06h1.61V76.6h-1.13v-6.27h-6c.03 2.67-.29 4.62-1.22 6.27h-1.05v3.47h1.61zm2.26-8.33h2.67v4.86h-3.7c.64-1.36.96-2.8 1.03-4.86zM112.82 76.22v-2.75c0-2.32-1.38-3.36-3.55-3.36a9.4 9.4 0 00-2.95.51v1.57c.7-.3 1.64-.59 2.77-.59 1.31 0 2.02.67 2.02 1.63v.27a10.2 10.2 0 00-2-.22c-1.6 0-3.43.6-3.43 2.58 0 1.58 1.3 2.35 2.7 2.35 1.2 0 2.14-.39 2.89-1 .27.63.83.9 1.53.9.39 0 .77-.06 1.1-.19v-1.23c-.17.05-.34.1-.52.1-.3 0-.56-.13-.56-.57zm-3.38-1.74c.55 0 1.2.1 1.67.2v1.29c-.61.6-1.41.91-2.23.91-.77 0-1.44-.38-1.44-1.14 0-.96 1.03-1.26 2-1.26zM118.95 68.02v1.76a5.94 5.94 0 013.45-1.22c1.35 0 2.16.5 2.16 1.44 0 1.23-1.1 1.8-2.37 2.53-1.64.97-3.61 1.98-3.61 4.64V78h7.89v-1.65l-5.84.02c.01-1.09 1.34-1.76 2.75-2.6 1.47-.87 3-1.96 3-3.8 0-2.03-1.6-3.06-3.82-3.06-1.26 0-2.5.34-3.61 1.1zM49.18 132v-4.85h2.24L54.8 132h2.06l-4-5.74 3.72-5.46H54.5l-3.12 4.67h-2.2v-4.67h-1.83V132h1.82zM56.87 128.16c0 2.66 2.02 4.05 4.16 4.05 2.16 0 4.16-1.4 4.16-4.05 0-2.66-2-4.05-4.16-4.05-2.14 0-4.16 1.4-4.16 4.05zm6.58 0c0 1.5-1 2.48-2.42 2.48-1.44 0-2.43-.98-2.43-2.48s1-2.48 2.43-2.48c1.43 0 2.42.98 2.42 2.48zM68.5 132v-5.2l2.18 3.36h1.02l2.2-3.36v5.2h1.64v-7.68h-1.73l-2.62 4.05-2.6-4.05h-1.74V132h1.65zM84.23 130.22v-2.75c0-2.32-1.38-3.36-3.56-3.36a9.4 9.4 0 00-2.94.51v1.57c.69-.3 1.63-.59 2.77-.59 1.3 0 2.01.67 2.01 1.63v.27a10.2 10.2 0 00-2-.22c-1.6 0-3.42.6-3.42 2.58 0 1.58 1.3 2.35 2.69 2.35 1.2 0 2.14-.39 2.9-1 .27.63.83.9 1.53.9.38 0 .77-.06 1.09-.19v-1.23c-.16.05-.34.1-.51.1-.3 0-.56-.13-.56-.57zm-3.38-1.74c.54 0 1.2.1 1.66.2v1.29c-.6.6-1.4.91-2.22.91-.77 0-1.44-.38-1.44-1.14 0-.96 1.02-1.26 2-1.26zM88.3 132v-3.09h3.84V132h1.71v-7.68h-1.71v3.09H88.3v-3.09h-1.71V132h1.71zM96.92 134.06V132h6.18v2.06h1.61v-3.47h-1.13v-6.27h-6c.03 2.67-.29 4.62-1.22 6.27h-1.05v3.47h1.61zm2.26-8.33h2.67v4.86h-3.7c.64-1.36.96-2.8 1.03-4.86zM112.82 130.22v-2.75c0-2.32-1.38-3.36-3.55-3.36a9.4 9.4 0 00-2.95.51v1.57c.7-.3 1.64-.59 2.77-.59 1.31 0 2.02.67 2.02 1.63v.27a10.2 10.2 0 00-2-.22c-1.6 0-3.43.6-3.43 2.58 0 1.58 1.3 2.35 2.7 2.35 1.2 0 2.14-.39 2.89-1 .27.63.83.9 1.53.9.39 0 .77-.06 1.1-.19v-1.23c-.17.05-.34.1-.52.1-.3 0-.56-.13-.56-.57zm-3.38-1.74c.55 0 1.2.1 1.67.2v1.29c-.61.6-1.41.91-2.23.91-.77 0-1.44-.38-1.44-1.14 0-.96 1.03-1.26 2-1.26zM126.18 123.89c0-1.86-1.57-2.98-3.8-2.98-1.35 0-2.52.29-3.5.8v1.75c1.06-.61 2.18-.9 3.25-.9 1.49 0 2.3.58 2.3 1.55 0 .9-.72 1.47-2.06 1.47l-1.52-.01v1.65h1.73c1.3 0 2.3.4 2.3 1.63s-1.12 1.7-2.56 1.71a6.95 6.95 0 01-3.63-.83v1.76c1.15.5 2.3.72 3.78.72 2.22 0 4.16-.98 4.16-3.17a2.76 2.76 0 00-2.07-2.78 2.4 2.4 0 001.62-2.37z" fill="#333"/><path fill-rule="evenodd" clip-rule="evenodd" d="M86 44v-6h2v6h4.77L87 54l-5.77-10H86zM86 98v-6h2v6h4.77L87 108l-5.77-10H86z" fill="#B4B9D0"/></svg>