<svg width="705" height="138" viewBox="0 0 705 138" fill="none" xmlns="http://www.w3.org/2000/svg"><path d="M66 71a4 4 0 014-4h166a4 4 0 014 4v30a4 4 0 01-4 4H70a4 4 0 01-4-4V71z" fill="#fff"/><path fill-rule="evenodd" clip-rule="evenodd" d="M236 69H70a2 2 0 00-2 2v30c0 1.1.9 2 2 2h166a2 2 0 002-2V71a2 2 0 00-2-2zM70 67a4 4 0 00-4 4v30a4 4 0 004 4h166a4 4 0 004-4V71a4 4 0 00-4-4H70z" fill="#B4B9D0"/><path d="M466 71a4 4 0 014-4h166a4 4 0 014 4v30a4 4 0 01-4 4H470a4 4 0 01-4-4V71z" fill="#fff"/><path fill-rule="evenodd" clip-rule="evenodd" d="M636 69H470a2 2 0 00-2 2v30c0 1.1.9 2 2 2h166a2 2 0 002-2V71a2 2 0 00-2-2zm-166-2a4 4 0 00-4 4v30a4 4 0 004 4h166a4 4 0 004-4V71a4 4 0 00-4-4H470z" fill="#B4B9D0"/><path d="M117.18 91v-4.85h2.24L122.8 91h2.06l-4-5.74 3.72-5.46h-2.07l-3.12 4.67h-2.2V79.8h-1.83V91h1.82zM124.87 87.16c0 2.66 2.02 4.05 4.16 4.05 2.16 0 4.16-1.4 4.16-4.05 0-2.66-2-4.05-4.16-4.05-2.14 0-4.16 1.4-4.16 4.05zm6.58 0c0 1.5-1 2.48-2.42 2.48-1.44 0-2.43-.98-2.43-2.48s1-2.48 2.43-2.48c1.43 0 2.42.98 2.42 2.48zM136.5 91v-5.2l2.18 3.36h1.02l2.2-3.36V91h1.64v-7.68h-1.73l-2.62 4.05-2.6-4.05h-1.74V91h1.65zM152.22 89.22v-2.75c0-2.32-1.37-3.36-3.55-3.36a9.4 9.4 0 00-2.94.51v1.57c.69-.3 1.63-.59 2.77-.59 1.3 0 2.01.67 2.01 1.63v.27a10.2 10.2 0 00-2-.22c-1.6 0-3.42.6-3.42 2.58 0 1.58 1.3 2.35 2.69 2.35 1.2 0 2.14-.39 2.9-1 .26.63.82.9 1.53.9.38 0 .77-.06 1.09-.19v-1.23c-.16.05-.34.1-.52.1-.3 0-.56-.13-.56-.57zm-3.37-1.74c.54 0 1.2.1 1.66.2v1.29c-.6.6-1.4.91-2.22.91-.77 0-1.44-.38-1.44-1.14 0-.96 1.02-1.26 2-1.26zM156.3 91v-3.09h3.84V91h1.71v-7.68h-1.71v3.09h-3.84v-3.09h-1.71V91h1.71zM164.92 93.06V91h6.18v2.06h1.61V89.6h-1.13v-6.27h-6c.03 2.67-.29 4.62-1.22 6.27h-1.05v3.47h1.61zm2.26-8.33h2.67v4.86h-3.7c.64-1.36.96-2.8 1.03-4.86zM180.82 89.22v-2.75c0-2.32-1.38-3.36-3.55-3.36a9.4 9.4 0 00-2.95.51v1.57c.7-.3 1.64-.59 2.77-.59 1.31 0 2.02.67 2.02 1.63v.27a10.2 10.2 0 00-2-.22c-1.6 0-3.43.6-3.43 2.58 0 1.58 1.3 2.35 2.7 2.35 1.2 0 2.13-.39 2.89-1 .27.63.83.9 1.53.9.39 0 .77-.06 1.1-.19v-1.23c-.17.05-.34.1-.52.1-.3 0-.56-.13-.56-.57zm-3.38-1.74c.55 0 1.2.1 1.67.2v1.29c-.61.6-1.41.91-2.23.91-.76 0-1.44-.38-1.44-1.14 0-.96 1.03-1.26 2-1.26zM189.36 80.12l-2.64 1v1.69l2.18-.82v7.36h-2.18V91h5.92v-1.65h-1.93v-9.23h-1.35zM515.56 91v-4.85h2.24l3.38 4.85h2.06l-4-5.74 3.71-5.46h-2.06l-3.12 4.67h-2.21V79.8h-1.82V91h1.82zM523.25 87.16c0 2.66 2.01 4.05 4.16 4.05 2.16 0 4.16-1.4 4.16-4.05 0-2.66-2-4.05-4.16-4.05-2.15 0-4.16 1.4-4.16 4.05zm6.57 0c0 1.5-.99 2.48-2.41 2.48-1.44 0-2.43-.98-2.43-2.48s.99-2.48 2.43-2.48c1.42 0 2.41.98 2.41 2.48zM534.88 91v-5.2l2.17 3.36h1.03l2.19-3.36V91h1.65v-7.68h-1.73l-2.63 4.05-2.6-4.05h-1.73V91h1.65zM550.6 89.22v-2.75c0-2.32-1.38-3.36-3.55-3.36a9.4 9.4 0 00-2.95.51v1.57c.7-.3 1.64-.59 2.77-.59 1.31 0 2.02.67 2.02 1.63v.27a10.2 10.2 0 00-2-.22c-1.6 0-3.43.6-3.43 2.58 0 1.58 1.3 2.35 2.7 2.35 1.2 0 2.14-.39 2.89-1 .27.63.83.9 1.53.9.39 0 .77-.06 1.1-.19v-1.23c-.17.05-.34.1-.52.1-.3 0-.56-.13-.56-.57zm-3.38-1.74c.55 0 1.2.1 1.67.2v1.29c-.61.6-1.41.91-2.23.91-.76 0-1.44-.38-1.44-1.14 0-.96 1.03-1.26 2-1.26zM554.67 91v-3.09h3.85V91h1.7v-7.68h-1.7v3.09h-3.85v-3.09h-1.7V91h1.7zM563.3 93.06V91h6.17v2.06h1.62V89.6h-1.14v-6.27h-6c.03 2.67-.29 4.62-1.21 6.27h-1.06v3.47h1.62zm2.25-8.33h2.68v4.86h-3.7c.64-1.36.96-2.8 1.02-4.86zM579.2 89.22v-2.75c0-2.32-1.38-3.36-3.56-3.36a9.4 9.4 0 00-2.94.51v1.57c.69-.3 1.63-.59 2.77-.59 1.3 0 2.01.67 2.01 1.63v.27a10.2 10.2 0 00-2-.22c-1.6 0-3.42.6-3.42 2.58 0 1.58 1.3 2.35 2.69 2.35 1.2 0 2.14-.39 2.9-1 .26.63.82.9 1.53.9.38 0 .77-.06 1.09-.19v-1.23c-.16.05-.34.1-.52.1-.3 0-.56-.13-.56-.57zm-3.38-1.74c.54 0 1.2.1 1.66.2v1.29c-.6.6-1.4.91-2.22.91-.77 0-1.44-.38-1.44-1.14 0-.96 1.02-1.26 2-1.26zM585.32 81.02v1.76a5.94 5.94 0 013.46-1.22c1.34 0 2.16.5 2.16 1.44 0 1.23-1.1 1.8-2.37 2.53-1.65.97-3.62 1.98-3.62 4.64V91h7.9v-1.65l-5.85.02c.02-1.09 1.35-1.76 2.75-2.6 1.48-.87 3.01-1.96 3.01-3.8 0-2.03-1.61-3.06-3.82-3.06-1.27 0-2.5.34-3.62 1.1z" fill="#333"/><path fill-rule="evenodd" clip-rule="evenodd" d="M152 113v-8h2v8a9 9 0 009 9h191v16h-2v-14H163a11 11 0 01-11-11zM554 105v8a11 11 0 01-11 11H354v-2h189a9 9 0 009-9v-8h2zM152 52a11 11 0 0111-11h190v2H163a9 9 0 00-9 9v5h4.77L153 67l-5.77-10H152v-5z" fill="#B4B9D0"/><path fill-rule="evenodd" clip-rule="evenodd" d="M352 42V0h2v42h-2z" fill="#B4B9D0"/><path fill-rule="evenodd" clip-rule="evenodd" d="M543 43H353v-2h190a11 11 0 0111 11v5h4.77L553 67l-5.77-10H552v-5a9 9 0 00-9-9z" fill="#B4B9D0"/><path d="M350.03 11.19l-72.39 28.95a2 2 0 000 3.72l72.39 28.95a8 8 0 005.94 0l72.39-28.95a2 2 0 000-3.72L355.97 11.2a8 8 0 00-5.94 0z" fill="#7F75D7"/><path d="M328.41 43.46l4.07-8.66h-1.99l-2.86 6.4-3.44-6.4h-2.03l4.54 8.08-.2.42c-.45.9-1.06 1.24-1.99 1.24-.45 0-.91-.08-1.3-.2v1.61c.53.16 1.1.26 1.6.26 1.33 0 2.61-.63 3.6-2.75zM331.65 42.22c0 2.74 2.1 3.99 4.15 3.99.97 0 1.8-.18 2.54-.53V44.1c-.6.35-1.42.59-2.24.59-1.37 0-2.7-.79-2.7-2.53 0-1.8 1.37-2.53 2.73-2.53.79 0 1.57.24 2.13.64V38.7c-.67-.4-1.5-.59-2.37-.59-2.04 0-4.24 1.25-4.24 4.11zM343.11 39.78h2.6V46h1.7v-7.68h-5.91c-.15 3.8-.5 6.37-1.8 6.37-.16 0-.32-.03-.5-.1v1.35a3 3 0 001.06.2c2.05 0 2.63-2.65 2.85-6.36zM349.08 42.16c0 2.66 2.01 4.05 4.16 4.05 2.16 0 4.16-1.4 4.16-4.05 0-2.66-2-4.05-4.16-4.05-2.15 0-4.16 1.4-4.16 4.05zm6.57 0c0 1.5-.99 2.48-2.41 2.48-1.44 0-2.44-.98-2.44-2.48s1-2.48 2.44-2.48c1.42 0 2.41.98 2.41 2.48zM363.57 46c1.77 0 2.53-.93 2.53-2.11 0-.95-.6-1.55-1.32-1.78a1.8 1.8 0 001.1-1.74c0-1.2-.89-2.05-2.44-2.05h-4.38V46h4.5zm-2.8-3.26h2.41c.6 0 1.19.2 1.19.99 0 .73-.51.97-1.22.97h-2.38v-1.96zm0-3.12h2.29c.52 0 1.08.22 1.08.97 0 .69-.48.93-1.08.93h-2.3v-1.9zM369.3 46l4.1-5.02V46h1.72v-7.68h-1.47l-4.12 5.02v-5.02h-1.7V46h1.46zM376.78 42.16c0 2.7 2 4.05 4.35 4.05 1.07 0 2.05-.2 2.75-.53v-1.47c-.65.32-1.5.54-2.43.54-1.4 0-2.75-.57-2.94-1.95h5.77c.5-2.22-.56-4.69-3.61-4.69a3.85 3.85 0 00-3.9 4.05zm5.97-.64h-4.26c.06-1.3 1.1-1.98 2.26-1.98 1.68 0 2.1 1.3 2 1.98z" fill="#fff"/><path d="M243.74 24v2.32h-1.38v1.5h1.38v3.84c0 1.8 1.15 2.53 2.64 2.53.75 0 1.49-.13 2.06-.33v-1.48c-.47.2-.99.3-1.55.3-.99 0-1.45-.33-1.45-1.34v-3.52h2.78v-1.5h-2.78v-2.74l-1.7.42zM251.36 27.58v-1.26h-1.52V34h1.71v-4.66c.46-1.08 1.66-1.7 3.04-1.5v-1.68a3.42 3.42 0 00-3.23 1.42zM261.45 26.32v5.09c-.43.62-1.17 1.28-2.14 1.28-1.14 0-1.8-.6-1.8-1.84v-4.53h-1.7v4.75c0 1.83 1.13 3.14 3.16 3.14a3.5 3.5 0 002.67-1.27V34h1.52v-7.68h-1.7zM264.83 30.16c0 2.7 2 4.05 4.35 4.05 1.07 0 2.05-.2 2.75-.53v-1.47c-.66.32-1.5.54-2.43.54-1.41 0-2.75-.57-2.95-1.95h5.78c.5-2.22-.56-4.69-3.62-4.69a3.85 3.85 0 00-3.88 4.05zm5.96-.64h-4.25c.06-1.3 1.1-1.98 2.25-1.98 1.68 0 2.1 1.3 2 1.98zM436.46 34v-6.18h2.62v-1.5h-2.62v-.78c0-1.2.73-1.44 1.56-1.44.55 0 1.1.14 1.5.33v-1.5a5.7 5.7 0 00-1.91-.34c-1.41 0-2.87.66-2.87 2.88v.85h-1.39v1.5h1.4V34h1.7zM446.8 32.22v-2.75c0-2.32-1.37-3.36-3.55-3.36a9.4 9.4 0 00-2.94.51v1.57c.69-.3 1.63-.59 2.76-.59 1.32 0 2.02.67 2.02 1.63v.27a10.2 10.2 0 00-2-.22c-1.6 0-3.42.6-3.42 2.58 0 1.58 1.3 2.35 2.69 2.35 1.2 0 2.14-.39 2.9-1 .26.63.82.9 1.53.9.38 0 .76-.06 1.08-.19v-1.23c-.16.05-.33.1-.5.1-.31 0-.57-.13-.57-.57zm-3.37-1.74c.54 0 1.2.1 1.66.2v1.29c-.6.6-1.4.91-2.22.91-.77 0-1.44-.38-1.44-1.14 0-.96 1.02-1.26 2-1.26zM449.09 22.32V34h1.71V22.32h-1.71zM452.58 28.4c0 2.75 4.64 2.16 4.64 3.58 0 .63-.7.79-1.67.79-.96 0-2.12-.29-2.92-.82v1.52c.75.47 1.88.74 3 .74 1.75 0 3.32-.56 3.32-2.26 0-2.8-4.63-2.11-4.63-3.6 0-.62.74-.83 1.43-.83.9 0 2.01.32 2.65.75v-1.5a6.14 6.14 0 00-2.77-.66c-1.52 0-3.05.61-3.05 2.29zM460.01 30.16c0 2.7 2 4.05 4.36 4.05 1.07 0 2.04-.2 2.75-.53v-1.47c-.66.32-1.5.54-2.43.54-1.41 0-2.76-.57-2.95-1.95h5.78c.5-2.22-.56-4.69-3.62-4.69a3.85 3.85 0 00-3.89 4.05zm5.97-.64h-4.25c.06-1.3 1.1-1.98 2.25-1.98 1.68 0 2.1 1.3 2 1.98z" fill="#7F75D7"/></svg>