<svg width="705" height="209" viewBox="0 0 705 209" fill="none" xmlns="http://www.w3.org/2000/svg"><path d="M0 121a4 4 0 014-4h112a4 4 0 014 4v30a4 4 0 01-4 4H4a4 4 0 01-4-4v-30z" fill="#fff"/><path fill-rule="evenodd" clip-rule="evenodd" d="M116 119H4a2 2 0 00-2 2v30c0 1.1.9 2 2 2h112a2 2 0 002-2v-30a2 2 0 00-2-2zM4 117a4 4 0 00-4 4v30a4 4 0 004 4h112a4 4 0 004-4v-30a4 4 0 00-4-4H4z" fill="#B4B9D0"/><path d="M375 121a4 4 0 014-4h112a4 4 0 014 4v30a4 4 0 01-4 4H379a4 4 0 01-4-4v-30z" fill="#fff"/><path fill-rule="evenodd" clip-rule="evenodd" d="M491 119H379a2 2 0 00-2 2v30c0 1.1.9 2 2 2h112a2 2 0 002-2v-30a2 2 0 00-2-2zm-112-2a4 4 0 00-4 4v30a4 4 0 004 4h112a4 4 0 004-4v-30a4 4 0 00-4-4H379z" fill="#B4B9D0"/><path d="M210 121a4 4 0 014-4h112a4 4 0 014 4v30a4 4 0 01-4 4H214a4 4 0 01-4-4v-30z" fill="#fff"/><path fill-rule="evenodd" clip-rule="evenodd" d="M326 119H214a2 2 0 00-2 2v30c0 1.1.9 2 2 2h112a2 2 0 002-2v-30a2 2 0 00-2-2zm-112-2a4 4 0 00-4 4v30a4 4 0 004 4h112a4 4 0 004-4v-30a4 4 0 00-4-4H214z" fill="#B4B9D0"/><path d="M585 121a4 4 0 014-4h112a4 4 0 014 4v30a4 4 0 01-4 4H589a4 4 0 01-4-4v-30z" fill="#fff"/><path fill-rule="evenodd" clip-rule="evenodd" d="M701 119H589a2 2 0 00-2 2v30c0 1.1.9 2 2 2h112a2 2 0 002-2v-30a2 2 0 00-2-2zm-112-2a4 4 0 00-4 4v30a4 4 0 004 4h112a4 4 0 004-4v-30a4 4 0 00-4-4H589z" fill="#B4B9D0"/><path d="M24.18 141v-4.85h2.24L29.8 141h2.06l-4-5.74 3.72-5.46H29.5l-3.12 4.67h-2.2v-4.67h-1.83V141h1.82zM31.87 137.16c0 2.66 2.02 4.05 4.16 4.05 2.16 0 4.16-1.4 4.16-4.05 0-2.66-2-4.05-4.16-4.05-2.14 0-4.16 1.4-4.16 4.05zm6.58 0c0 1.5-1 2.48-2.42 2.48-1.44 0-2.43-.98-2.43-2.48s1-2.48 2.43-2.48c1.43 0 2.42.98 2.42 2.48zM43.5 141v-5.2l2.18 3.36h1.02l2.2-3.36v5.2h1.64v-7.68h-1.73l-2.62 4.05-2.6-4.05h-1.74V141h1.65zM59.23 139.22v-2.75c0-2.32-1.38-3.36-3.56-3.36a9.4 9.4 0 00-2.94.51v1.57c.69-.3 1.63-.59 2.77-.59 1.3 0 2.01.67 2.01 1.63v.27a10.2 10.2 0 00-2-.22c-1.6 0-3.42.6-3.42 2.58 0 1.58 1.3 2.35 2.69 2.35 1.2 0 2.14-.39 2.9-1 .27.63.83.9 1.53.9.38 0 .77-.06 1.09-.19v-1.23c-.16.05-.34.1-.51.1-.3 0-.56-.13-.56-.57zm-3.38-1.74c.54 0 1.2.1 1.66.2v1.29c-.6.6-1.4.91-2.22.91-.77 0-1.44-.38-1.44-1.14 0-.96 1.02-1.26 2-1.26zM63.3 141v-3.09h3.84V141h1.71v-7.68h-1.71v3.09H63.3v-3.09h-1.71V141h1.71zM71.92 143.06V141h6.18v2.06h1.61v-3.47h-1.13v-6.27h-6c.03 2.67-.29 4.62-1.22 6.27h-1.05v3.47h1.61zm2.26-8.33h2.67v4.86h-3.7c.64-1.36.96-2.8 1.03-4.86zM87.82 139.22v-2.75c0-2.32-1.38-3.36-3.55-3.36a9.4 9.4 0 00-2.95.51v1.57c.7-.3 1.64-.59 2.77-.59 1.31 0 2.02.67 2.02 1.63v.27a10.2 10.2 0 00-2-.22c-1.6 0-3.43.6-3.43 2.58 0 1.58 1.3 2.35 2.7 2.35 1.2 0 2.14-.39 2.89-1 .27.63.83.9 1.53.9.39 0 .77-.06 1.1-.19v-1.23c-.17.05-.34.1-.52.1-.3 0-.56-.13-.56-.57zm-3.38-1.74c.55 0 1.2.1 1.67.2v1.29c-.61.6-1.41.91-2.23.91-.76 0-1.44-.38-1.44-1.14 0-.96 1.03-1.26 2-1.26zM96.36 130.12l-2.64 1v1.69l2.18-.82v7.36h-2.18V141h5.92v-1.65h-1.93v-9.23h-1.35zM397.5 141v-4.85h2.24l3.38 4.85h2.06l-4-5.74 3.72-5.46h-2.07l-3.12 4.67h-2.2v-4.67h-1.83V141h1.82zM405.2 137.16c0 2.66 2.01 4.05 4.15 4.05 2.16 0 4.16-1.4 4.16-4.05 0-2.66-2-4.05-4.16-4.05-2.14 0-4.16 1.4-4.16 4.05zm6.57 0c0 1.5-1 2.48-2.42 2.48-1.44 0-2.43-.98-2.43-2.48s1-2.48 2.43-2.48c1.43 0 2.42.98 2.42 2.48zM416.82 141v-5.2l2.18 3.36h1.02l2.2-3.36v5.2h1.64v-7.68h-1.73l-2.62 4.05-2.6-4.05h-1.74V141h1.65zM432.55 139.22v-2.75c0-2.32-1.38-3.36-3.56-3.36a9.4 9.4 0 00-2.94.51v1.57c.69-.3 1.63-.59 2.77-.59 1.31 0 2.01.67 2.01 1.63v.27a10.2 10.2 0 00-2-.22c-1.6 0-3.42.6-3.42 2.58 0 1.58 1.3 2.35 2.69 2.35 1.2 0 2.14-.39 2.9-1 .27.63.83.9 1.53.9.38 0 .77-.06 1.09-.19v-1.23c-.16.05-.34.1-.51.1-.3 0-.56-.13-.56-.57zm-3.38-1.74c.54 0 1.2.1 1.66.2v1.29c-.6.6-1.4.91-2.22.91-.77 0-1.44-.38-1.44-1.14 0-.96 1.02-1.26 2-1.26zM436.62 141v-3.09h3.84V141h1.71v-7.68h-1.71v3.09h-3.84v-3.09h-1.71V141h1.71zM445.24 143.06V141h6.18v2.06h1.61v-3.47h-1.13v-6.27h-6c.03 2.67-.29 4.62-1.22 6.27h-1.05v3.47h1.61zm2.26-8.33h2.67v4.86h-3.7c.64-1.36.96-2.8 1.03-4.86zM461.14 139.22v-2.75c0-2.32-1.38-3.36-3.55-3.36a9.4 9.4 0 00-2.95.51v1.57c.7-.3 1.63-.59 2.77-.59 1.31 0 2.02.67 2.02 1.63v.27a10.2 10.2 0 00-2-.22c-1.6 0-3.43.6-3.43 2.58 0 1.58 1.3 2.35 2.7 2.35 1.2 0 2.13-.39 2.89-1 .27.63.83.9 1.53.9.39 0 .77-.06 1.1-.19v-1.23c-.17.05-.35.1-.52.1-.3 0-.56-.13-.56-.57zm-3.38-1.74c.55 0 1.2.1 1.67.2v1.29c-.61.6-1.41.91-2.23.91-.76 0-1.44-.38-1.44-1.14 0-.96 1.03-1.26 2-1.26zM474.5 132.89c0-1.86-1.57-2.98-3.8-2.98-1.35 0-2.52.29-3.5.8v1.75c1.06-.61 2.18-.9 3.25-.9 1.49 0 2.3.58 2.3 1.55 0 .9-.71 1.47-2.06 1.47l-1.52-.01v1.65h1.73c1.3 0 2.3.4 2.3 1.63s-1.12 1.7-2.56 1.71a6.95 6.95 0 01-3.63-.83v1.76c1.15.5 2.3.72 3.78.72 2.22 0 4.16-.98 4.16-3.17a2.76 2.76 0 00-2.07-2.78 2.4 2.4 0 001.62-2.37zM232.56 141v-4.85h2.24l3.38 4.85h2.06l-4-5.74 3.71-5.46h-2.06l-3.12 4.67h-2.21v-4.67h-1.82V141h1.82zM240.25 137.16c0 2.66 2.01 4.05 4.16 4.05 2.16 0 4.16-1.4 4.16-4.05 0-2.66-2-4.05-4.16-4.05-2.15 0-4.16 1.4-4.16 4.05zm6.57 0c0 1.5-.99 2.48-2.41 2.48-1.44 0-2.43-.98-2.43-2.48s.99-2.48 2.43-2.48c1.42 0 2.41.98 2.41 2.48zM251.88 141v-5.2l2.17 3.36h1.03l2.19-3.36v5.2h1.65v-7.68h-1.73l-2.63 4.05-2.6-4.05h-1.73V141h1.65zM267.6 139.22v-2.75c0-2.32-1.38-3.36-3.55-3.36a9.4 9.4 0 00-2.95.51v1.57c.7-.3 1.64-.59 2.77-.59 1.31 0 2.02.67 2.02 1.63v.27a10.2 10.2 0 00-2-.22c-1.6 0-3.43.6-3.43 2.58 0 1.58 1.3 2.35 2.7 2.35 1.2 0 2.14-.39 2.89-1 .27.63.83.9 1.53.9.39 0 .77-.06 1.1-.19v-1.23c-.17.05-.34.1-.52.1-.3 0-.56-.13-.56-.57zm-3.38-1.74c.55 0 1.2.1 1.67.2v1.29c-.61.6-1.41.91-2.23.91-.76 0-1.44-.38-1.44-1.14 0-.96 1.03-1.26 2-1.26zM271.68 141v-3.09h3.83V141h1.72v-7.68h-1.72v3.09h-3.83v-3.09h-1.72V141h1.72zM280.3 143.06V141h6.17v2.06h1.62v-3.47h-1.14v-6.27h-6c.04 2.67-.28 4.62-1.21 6.27h-1.06v3.47h1.62zm2.25-8.33h2.68v4.86h-3.7c.64-1.36.96-2.8 1.02-4.86zM296.2 139.22v-2.75c0-2.32-1.38-3.36-3.56-3.36a9.4 9.4 0 00-2.94.51v1.57c.69-.3 1.63-.59 2.77-.59 1.3 0 2.01.67 2.01 1.63v.27a10.2 10.2 0 00-2-.22c-1.6 0-3.42.6-3.42 2.58 0 1.58 1.3 2.35 2.69 2.35 1.2 0 2.14-.39 2.9-1 .26.63.82.9 1.53.9.38 0 .77-.06 1.09-.19v-1.23c-.16.05-.34.1-.52.1-.3 0-.56-.13-.56-.57zm-3.38-1.74c.54 0 1.2.1 1.66.2v1.29c-.6.6-1.4.91-2.22.91-.77 0-1.44-.38-1.44-1.14 0-.96 1.02-1.26 2-1.26zM302.32 131.02v1.76a5.94 5.94 0 013.46-1.22c1.34 0 2.16.5 2.16 1.44 0 1.23-1.1 1.8-2.37 2.53-1.65.97-3.62 1.98-3.62 4.64v.83h7.9v-1.65l-5.85.02c.02-1.09 1.35-1.76 2.75-2.6 1.48-.87 3.01-1.96 3.01-3.8 0-2.03-1.61-3.06-3.82-3.06-1.27 0-2.5.34-3.62 1.1zM607.54 141v-4.85h2.24l3.38 4.85h2.06l-4-5.74 3.71-5.46h-2.06l-3.12 4.67h-2.2v-4.67h-1.83V141h1.82zM615.23 137.16c0 2.66 2.02 4.05 4.16 4.05 2.16 0 4.16-1.4 4.16-4.05 0-2.66-2-4.05-4.16-4.05-2.14 0-4.16 1.4-4.16 4.05zm6.58 0c0 1.5-1 2.48-2.42 2.48-1.44 0-2.43-.98-2.43-2.48s1-2.48 2.43-2.48c1.43 0 2.42.98 2.42 2.48zM626.86 141v-5.2l2.18 3.36h1.02l2.2-3.36v5.2h1.64v-7.68h-1.73l-2.62 4.05-2.6-4.05h-1.74V141h1.65zM642.59 139.22v-2.75c0-2.32-1.38-3.36-3.56-3.36a9.4 9.4 0 00-2.94.51v1.57c.69-.3 1.63-.59 2.77-.59 1.3 0 2.01.67 2.01 1.63v.27a10.2 10.2 0 00-2-.22c-1.6 0-3.42.6-3.42 2.58 0 1.58 1.3 2.35 2.69 2.35 1.2 0 2.14-.39 2.9-1 .26.63.83.9 1.53.9.38 0 .77-.06 1.09-.19v-1.23c-.16.05-.34.1-.51.1-.3 0-.56-.13-.56-.57zm-3.38-1.74c.54 0 1.2.1 1.66.2v1.29c-.6.6-1.4.91-2.22.91-.77 0-1.44-.38-1.44-1.14 0-.96 1.02-1.26 2-1.26zM646.66 141v-3.09h3.84V141h1.71v-7.68h-1.71v3.09h-3.84v-3.09h-1.71V141h1.7zM655.28 143.06V141h6.18v2.06h1.61v-3.47h-1.13v-6.27h-6c.03 2.67-.3 4.62-1.22 6.27h-1.06v3.47h1.62zm2.26-8.33h2.67v4.86h-3.7c.64-1.36.96-2.8 1.03-4.86zM671.18 139.22v-2.75c0-2.32-1.38-3.36-3.55-3.36a9.4 9.4 0 00-2.95.51v1.57c.69-.3 1.63-.59 2.77-.59 1.31 0 2.02.67 2.02 1.63v.27a10.2 10.2 0 00-2-.22c-1.6 0-3.43.6-3.43 2.58 0 1.58 1.3 2.35 2.69 2.35 1.2 0 2.14-.39 2.9-1 .27.63.83.9 1.53.9.39 0 .77-.06 1.09-.19v-1.23c-.16.05-.34.1-.51.1-.3 0-.56-.13-.56-.57zm-3.38-1.74c.55 0 1.2.1 1.67.2v1.29c-.61.6-1.41.91-2.23.91-.77 0-1.44-.38-1.44-1.14 0-.96 1.03-1.26 2-1.26zM682.43 130.12l-5.8 7.1v1.56h5.9V141h1.77v-2.22h1.87v-1.59h-1.87v-7.07h-1.87zm.1 7.07h-3.86l3.87-4.75v4.75z" fill="#333"/><path fill-rule="evenodd" clip-rule="evenodd" d="M164.04 51A11 11 0 01175 41h178v2H175a9 9 0 00-8.94 8h4.71L165 61l-5.77-10h4.81z" fill="#B4B9D0"/><path fill-rule="evenodd" clip-rule="evenodd" d="M352 42V0h2v42h-2z" fill="#B4B9D0"/><path fill-rule="evenodd" clip-rule="evenodd" d="M530 43H353v-2h177a11 11 0 0110.96 10h4.81L540 61l-5.77-10h4.72a9 9 0 00-8.95-8zM54 102a11 11 0 0111-11h110v2H65a9 9 0 00-9 9v5h4.77L55 117l-5.77-10H54v-5zM265 93h-90v-2h90a11 11 0 0111 11v5h4.77L275 117l-5.77-10H274v-5a9 9 0 00-9-9zM429 102a11 11 0 0111-11h110v2H440a9 9 0 00-9 9v5h4.77L430 117l-5.77-10H429v-5z" fill="#B4B9D0"/><path fill-rule="evenodd" clip-rule="evenodd" d="M640 93H539.5v-2H640a11 11 0 0111 11v5h4.77L650 117l-5.77-10H649v-5a9 9 0 00-9-9z" fill="#B4B9D0"/><path d="M349.67 11.52l-62.7 28.66a2 2 0 000 3.64l62.7 28.66a8 8 0 006.66 0l62.7-28.66a2 2 0 000-3.64l-62.7-28.66a8 8 0 00-6.66 0zM161.67 61.52l-62.7 28.66a2 2 0 000 3.64l62.7 28.66a8 8 0 006.66 0l62.7-28.66a2 2 0 000-3.64l-62.7-28.66a8 8 0 00-6.66 0zM536.67 61.52l-62.7 28.66a2 2 0 000 3.64l62.7 28.66a8 8 0 006.66 0l62.7-28.66a2 2 0 000-3.64l-62.7-28.66a8 8 0 00-6.66 0z" fill="#7F75D7"/><path d="M322.47 43.46l4.06-8.66h-1.98l-2.87 6.4-3.44-6.4h-2.03l4.55 8.08-.21.42c-.45.9-1.06 1.24-1.99 1.24-.44 0-.9-.08-1.3-.2v1.61c.54.16 1.1.26 1.6.26 1.34 0 2.62-.63 3.6-2.75zM325.7 42.22c0 2.74 2.1 3.99 4.15 3.99.98 0 1.81-.18 2.55-.53V44.1c-.61.35-1.43.59-2.24.59-1.38 0-2.7-.79-2.7-2.53 0-1.8 1.37-2.53 2.73-2.53.78 0 1.57.24 2.13.64V38.7c-.68-.4-1.5-.59-2.37-.59-2.05 0-4.24 1.25-4.24 4.11zM337.17 39.78h2.59V46h1.71v-7.68h-5.92c-.14 3.8-.5 6.37-1.8 6.37-.15 0-.31-.03-.49-.1v1.35a3 3 0 001.06.2c2.05 0 2.62-2.65 2.85-6.36zM343.13 42.16c0 2.66 2.02 4.05 4.16 4.05 2.16 0 4.16-1.4 4.16-4.05 0-2.66-2-4.05-4.16-4.05-2.14 0-4.16 1.4-4.16 4.05zm6.58 0c0 1.5-1 2.48-2.42 2.48-1.44 0-2.43-.98-2.43-2.48s1-2.48 2.43-2.48c1.42 0 2.42.98 2.42 2.48zM357.62 46c1.78 0 2.53-.93 2.53-2.11 0-.95-.6-1.55-1.31-1.78a1.8 1.8 0 001.09-1.74c0-1.2-.88-2.05-2.44-2.05h-4.38V46h4.51zm-2.8-3.26h2.42c.6 0 1.18.2 1.18.99 0 .73-.5.97-1.21.97h-2.39v-1.96zm0-3.12h2.3c.52 0 1.08.22 1.08.97 0 .69-.48.93-1.09.93h-2.29v-1.9zM363.35 46l4.11-5.02V46h1.71v-7.68h-1.47l-4.11 5.02v-5.02h-1.71V46h1.47zM370.83 42.16c0 2.7 2 4.05 4.36 4.05 1.07 0 2.04-.2 2.75-.53v-1.47c-.66.32-1.5.54-2.43.54-1.41 0-2.76-.57-2.95-1.95h5.78c.5-2.22-.56-4.69-3.62-4.69a3.85 3.85 0 00-3.89 4.05zm5.97-.64h-4.25c.06-1.3 1.1-1.98 2.25-1.98 1.68 0 2.1 1.3 2 1.98zM386.23 35.12l-2.64 1v1.69l2.18-.82v7.36h-2.18V46h5.92v-1.65h-1.94v-9.23h-1.34zM133.34 93.46l4.07-8.66h-1.99l-2.86 6.4-3.44-6.4h-2.03l4.54 8.08-.2.42c-.45.9-1.06 1.24-1.99 1.24-.45 0-.91-.08-1.3-.2v1.61c.53.16 1.1.26 1.6.26 1.33 0 2.61-.63 3.6-2.75zM136.58 92.22c0 2.74 2.1 3.99 4.15 3.99.97 0 1.8-.18 2.54-.53V94.1c-.6.35-1.42.59-2.24.59-1.37 0-2.7-.79-2.7-2.53 0-1.8 1.37-2.53 2.73-2.53.79 0 1.57.24 2.13.64V88.7c-.67-.4-1.5-.59-2.37-.59-2.04 0-4.24 1.25-4.24 4.11zM148.04 89.78h2.6V96h1.7v-7.68h-5.91c-.15 3.8-.5 6.37-1.8 6.37-.16 0-.32-.03-.5-.1v1.35a3 3 0 001.06.2c2.05 0 2.63-2.65 2.85-6.36zM154 92.16c0 2.66 2.02 4.05 4.17 4.05 2.16 0 4.16-1.4 4.16-4.05 0-2.66-2-4.05-4.16-4.05-2.15 0-4.16 1.4-4.16 4.05zm6.58 0c0 1.5-.99 2.48-2.41 2.48-1.44 0-2.44-.98-2.44-2.48s1-2.48 2.44-2.48c1.42 0 2.41.98 2.41 2.48zM168.5 96c1.77 0 2.53-.93 2.53-2.11 0-.95-.6-1.55-1.32-1.78a1.8 1.8 0 001.1-1.74c0-1.2-.89-2.05-2.44-2.05h-4.38V96h4.5zm-2.8-3.26h2.41c.6 0 1.19.2 1.19.99 0 .73-.51.97-1.22.97h-2.38v-1.96zm0-3.12h2.29c.52 0 1.08.22 1.08.97 0 .69-.48.93-1.08.93h-2.3v-1.9zM174.22 96l4.12-5.02V96h1.7v-7.68h-1.46l-4.12 5.02v-5.02h-1.7V96h1.46zM181.7 92.16c0 2.7 2 4.05 4.36 4.05 1.07 0 2.05-.2 2.75-.53v-1.47c-.65.32-1.5.54-2.43.54-1.4 0-2.75-.57-2.94-1.95h5.77c.5-2.22-.56-4.69-3.61-4.69a3.85 3.85 0 00-3.9 4.05zm5.98-.64h-4.26c.07-1.3 1.1-1.98 2.26-1.98 1.68 0 2.1 1.3 2 1.98zM194.69 86.02v1.76a5.94 5.94 0 013.46-1.22c1.34 0 2.16.5 2.16 1.44 0 1.23-1.1 1.8-2.37 2.53-1.65.97-3.62 1.98-3.62 4.64V96h7.89v-1.65l-5.84.02c.01-1.09 1.34-1.76 2.75-2.6 1.47-.87 3-1.96 3-3.8 0-2.03-1.6-3.06-3.81-3.06-1.27 0-2.5.34-3.62 1.1zM508.79 93.46l4.06-8.66h-1.98L508 91.2l-3.44-6.4h-2.03l4.55 8.08-.21.42c-.45.9-1.06 1.24-1.99 1.24-.44 0-.9-.08-1.3-.2v1.61c.54.16 1.1.26 1.6.26 1.34 0 2.62-.63 3.6-2.75zM512.03 92.22c0 2.74 2.1 3.99 4.14 3.99.98 0 1.81-.18 2.55-.53V94.1c-.61.35-1.43.59-2.24.59-1.38 0-2.7-.79-2.7-2.53 0-1.8 1.37-2.53 2.73-2.53.78 0 1.57.24 2.13.64V88.7c-.67-.4-1.5-.59-2.37-.59-2.05 0-4.24 1.25-4.24 4.11zM523.49 89.78h2.59V96h1.71v-7.68h-5.92c-.14 3.8-.5 6.37-1.8 6.37-.15 0-.31-.03-.49-.1v1.35a3 3 0 001.06.2c2.05 0 2.62-2.65 2.85-6.36zM529.45 92.16c0 2.66 2.02 4.05 4.16 4.05 2.16 0 4.16-1.4 4.16-4.05 0-2.66-2-4.05-4.16-4.05-2.14 0-4.16 1.4-4.16 4.05zm6.58 0c0 1.5-1 2.48-2.42 2.48-1.44 0-2.43-.98-2.43-2.48s1-2.48 2.43-2.48c1.42 0 2.42.98 2.42 2.48zM543.94 96c1.78 0 2.53-.93 2.53-2.11 0-.95-.6-1.55-1.31-1.78a1.8 1.8 0 001.09-1.74c0-1.2-.88-2.05-2.43-2.05h-4.39V96h4.51zm-2.8-3.26h2.42c.6 0 1.18.2 1.18.99 0 .73-.5.97-1.21.97h-2.39v-1.96zm0-3.12h2.3c.52 0 1.08.22 1.08.97 0 .69-.48.93-1.09.93h-2.29v-1.9zM549.67 96l4.11-5.02V96h1.71v-7.68h-1.47l-4.11 5.02v-5.02h-1.71V96h1.47zM557.15 92.16c0 2.7 2 4.05 4.36 4.05 1.07 0 2.04-.2 2.75-.53v-1.47c-.66.32-1.5.54-2.43.54-1.41 0-2.76-.57-2.95-1.95h5.78c.5-2.22-.56-4.69-3.62-4.69a3.85 3.85 0 00-3.89 4.05zm5.97-.64h-4.25c.06-1.3 1.1-1.98 2.25-1.98 1.68 0 2.1 1.3 2 1.98zM577.37 87.89c0-1.86-1.57-2.98-3.81-2.98-1.35 0-2.51.29-3.49.8v1.75c1.06-.61 2.18-.9 3.25-.9 1.49 0 2.3.58 2.3 1.55 0 .9-.72 1.47-2.06 1.47l-1.52-.01v1.65h1.73c1.3 0 2.3.4 2.3 1.63s-1.12 1.7-2.56 1.71a6.95 6.95 0 01-3.63-.83v1.76c1.15.5 2.3.72 3.77.72 2.23 0 4.16-.98 4.16-3.17a2.76 2.76 0 00-2.06-2.78 2.4 2.4 0 001.62-2.37z" fill="#fff"/><path d="M253.74 24v2.32h-1.38v1.5h1.38v3.84c0 1.8 1.15 2.53 2.64 2.53.75 0 1.49-.13 2.06-.33v-1.48c-.48.2-.99.3-1.55.3-.99 0-1.45-.33-1.45-1.34v-3.52h2.78v-1.5h-2.78v-2.74l-1.7.42zM261.36 27.58v-1.26h-1.52V34h1.71v-4.66c.46-1.08 1.66-1.7 3.04-1.5v-1.68a3.42 3.42 0 00-3.23 1.42zM271.45 26.32v5.09c-.43.62-1.17 1.28-2.14 1.28-1.14 0-1.8-.6-1.8-1.84v-4.53h-1.7v4.75c0 1.83 1.13 3.14 3.16 3.14a3.5 3.5 0 002.67-1.27V34h1.52v-7.68h-1.7zM274.83 30.16c0 2.7 2 4.05 4.35 4.05 1.07 0 2.05-.2 2.75-.53v-1.47c-.66.32-1.5.54-2.43.54-1.41 0-2.75-.57-2.95-1.95h5.78c.5-2.22-.56-4.69-3.62-4.69a3.85 3.85 0 00-3.88 4.05zm5.96-.64h-4.25c.06-1.3 1.1-1.98 2.25-1.98 1.68 0 2.1 1.3 2 1.98zM65.74 74v2.32h-1.37v1.5h1.37v3.84c0 1.8 1.15 2.53 2.64 2.53.75 0 1.49-.13 2.07-.33v-1.48c-.48.2-1 .3-1.56.3-.99 0-1.45-.33-1.45-1.34v-3.52h2.78v-1.5h-2.78v-2.74l-1.7.42zM73.36 77.58v-1.26h-1.52V84h1.71v-4.66c.46-1.08 1.66-1.7 3.04-1.5v-1.68a3.42 3.42 0 00-3.23 1.42zM83.45 76.32v5.09c-.43.62-1.17 1.28-2.14 1.28-1.14 0-1.8-.6-1.8-1.84v-4.53h-1.7v4.75c0 1.83 1.13 3.14 3.16 3.14a3.5 3.5 0 002.67-1.27V84h1.52v-7.68h-1.7zM86.83 80.16c0 2.7 2 4.05 4.35 4.05 1.07 0 2.05-.2 2.75-.53v-1.47c-.66.32-1.5.54-2.43.54-1.41 0-2.75-.57-2.95-1.95h5.78c.5-2.22-.56-4.69-3.62-4.69a3.85 3.85 0 00-3.88 4.05zm5.96-.64h-4.25c.06-1.3 1.1-1.98 2.25-1.98 1.68 0 2.1 1.3 2 1.98zM440.74 74v2.32h-1.38v1.5h1.38v3.84c0 1.8 1.15 2.53 2.64 2.53.75 0 1.49-.13 2.06-.33v-1.48c-.48.2-.99.3-1.55.3-.99 0-1.45-.33-1.45-1.34v-3.52h2.78v-1.5h-2.78v-2.74l-1.7.42zM448.36 77.58v-1.26h-1.52V84h1.71v-4.66c.46-1.08 1.66-1.7 3.04-1.5v-1.68a3.42 3.42 0 00-3.23 1.42zM458.45 76.32v5.09c-.43.62-1.17 1.28-2.14 1.28-1.14 0-1.8-.6-1.8-1.84v-4.53h-1.7v4.75c0 1.83 1.13 3.14 3.16 3.14a3.5 3.5 0 002.67-1.27V84h1.52v-7.68h-1.7zM461.83 80.16c0 2.7 2 4.05 4.35 4.05 1.07 0 2.05-.2 2.75-.53v-1.47c-.66.32-1.5.54-2.43.54-1.41 0-2.75-.57-2.95-1.95h5.78c.5-2.22-.56-4.69-3.62-4.69a3.85 3.85 0 00-3.88 4.05zm5.96-.64h-4.25c.06-1.3 1.1-1.98 2.25-1.98 1.68 0 2.1 1.3 2 1.98zM426.46 34v-6.18h2.62v-1.5h-2.62v-.78c0-1.2.73-1.44 1.56-1.44.55 0 1.1.14 1.5.33v-1.5a5.7 5.7 0 00-1.91-.34c-1.41 0-2.87.66-2.87 2.88v.85h-1.39v1.5h1.4V34h1.7zM436.8 32.22v-2.75c0-2.32-1.37-3.36-3.55-3.36a9.4 9.4 0 00-2.94.51v1.57c.69-.3 1.63-.59 2.76-.59 1.32 0 2.02.67 2.02 1.63v.27a10.2 10.2 0 00-2-.22c-1.6 0-3.42.6-3.42 2.58 0 1.58 1.3 2.35 2.69 2.35 1.2 0 2.14-.39 2.9-1 .26.63.82.9 1.53.9.38 0 .76-.06 1.08-.19v-1.23c-.16.05-.33.1-.5.1-.31 0-.57-.13-.57-.57zm-3.37-1.74c.54 0 1.2.1 1.66.2v1.29c-.6.6-1.4.91-2.22.91-.77 0-1.44-.38-1.44-1.14 0-.96 1.02-1.26 2-1.26zM439.09 22.32V34h1.71V22.32h-1.71zM442.58 28.4c0 2.75 4.64 2.16 4.64 3.58 0 .63-.7.79-1.67.79-.96 0-2.12-.29-2.92-.82v1.52c.75.47 1.88.74 3 .74 1.75 0 3.32-.56 3.32-2.26 0-2.8-4.63-2.11-4.63-3.6 0-.62.74-.83 1.43-.83.9 0 2.01.32 2.65.75v-1.5a6.14 6.14 0 00-2.77-.66c-1.52 0-3.05.61-3.05 2.29zM450.01 30.16c0 2.7 2 4.05 4.36 4.05 1.07 0 2.04-.2 2.75-.53v-1.47c-.66.32-1.5.54-2.43.54-1.41 0-2.76-.57-2.95-1.95h5.78c.5-2.22-.56-4.69-3.62-4.69a3.85 3.85 0 00-3.89 4.05zm5.97-.64h-4.25c.06-1.3 1.1-1.98 2.25-1.98 1.68 0 2.1 1.3 2 1.98zM238.46 84v-6.18h2.62v-1.5h-2.62v-.78c0-1.2.73-1.44 1.56-1.44.55 0 1.1.14 1.5.33v-1.5a5.7 5.7 0 00-1.91-.34c-1.41 0-2.87.66-2.87 2.88v.85h-1.39v1.5h1.4V84h1.7zM248.8 82.22v-2.75c0-2.32-1.37-3.36-3.55-3.36a9.4 9.4 0 00-2.94.51v1.57c.69-.3 1.63-.59 2.77-.59 1.3 0 2.01.67 2.01 1.63v.27a10.2 10.2 0 00-2-.22c-1.6 0-3.42.6-3.42 2.58 0 1.58 1.3 2.35 2.69 2.35 1.2 0 2.14-.39 2.9-1 .26.63.82.9 1.53.9.38 0 .77-.06 1.09-.19v-1.23c-.16.05-.34.1-.52.1-.3 0-.56-.13-.56-.57zm-3.37-1.74c.54 0 1.2.1 1.66.2v1.29c-.6.6-1.4.91-2.22.91-.77 0-1.44-.38-1.44-1.14 0-.96 1.02-1.26 2-1.26zM251.09 72.32V84h1.71V72.32h-1.71zM254.58 78.4c0 2.75 4.64 2.16 4.64 3.58 0 .63-.7.79-1.67.79-.96 0-2.12-.29-2.92-.82v1.52c.75.47 1.88.74 3 .74 1.75 0 3.32-.56 3.32-2.26 0-2.8-4.63-2.11-4.63-3.6 0-.62.74-.83 1.43-.83.9 0 2.01.32 2.65.75v-1.5a6.14 6.14 0 00-2.77-.66c-1.52 0-3.05.61-3.05 2.29zM262.01 80.16c0 2.7 2 4.05 4.36 4.05 1.07 0 2.04-.2 2.75-.53v-1.47c-.66.32-1.5.54-2.43.54-1.41 0-2.76-.57-2.95-1.95h5.78c.5-2.22-.56-4.69-3.62-4.69a3.85 3.85 0 00-3.89 4.05zm5.97-.64h-4.25c.06-1.3 1.1-1.98 2.25-1.98 1.68 0 2.1 1.3 2 1.98zM613.46 84v-6.18h2.62v-1.5h-2.62v-.78c0-1.2.73-1.44 1.56-1.44.55 0 1.1.14 1.5.33v-1.5a5.7 5.7 0 00-1.91-.34c-1.41 0-2.87.66-2.87 2.88v.85h-1.39v1.5h1.4V84h1.7zM623.8 82.22v-2.75c0-2.32-1.37-3.36-3.55-3.36a9.4 9.4 0 00-2.94.51v1.57c.69-.3 1.63-.59 2.77-.59 1.3 0 2.01.67 2.01 1.63v.27a10.2 10.2 0 00-2-.22c-1.6 0-3.42.6-3.42 2.58 0 1.58 1.3 2.35 2.69 2.35 1.2 0 2.14-.39 2.9-1 .26.63.82.9 1.53.9.38 0 .76-.06 1.09-.19v-1.23c-.16.05-.34.1-.52.1-.3 0-.56-.13-.56-.57zm-3.37-1.74c.54 0 1.2.1 1.66.2v1.29c-.6.6-1.4.91-2.22.91-.77 0-1.44-.38-1.44-1.14 0-.96 1.02-1.26 2-1.26zM626.09 72.32V84h1.71V72.32h-1.71zM629.58 78.4c0 2.75 4.64 2.16 4.64 3.58 0 .63-.7.79-1.67.79-.96 0-2.12-.29-2.92-.82v1.52c.75.47 1.88.74 3 .74 1.75 0 3.32-.56 3.32-2.26 0-2.8-4.63-2.11-4.63-3.6 0-.62.74-.83 1.43-.83.9 0 2.01.32 2.65.75v-1.5a6.14 6.14 0 00-2.77-.66c-1.52 0-3.05.61-3.05 2.29zM637.01 80.16c0 2.7 2 4.05 4.36 4.05 1.07 0 2.04-.2 2.75-.53v-1.47c-.66.32-1.5.54-2.43.54-1.41 0-2.76-.57-2.95-1.95h5.78c.5-2.22-.56-4.69-3.62-4.69a3.85 3.85 0 00-3.89 4.05zm5.97-.64h-4.25c.06-1.3 1.1-1.98 2.25-1.98 1.68 0 2.1 1.3 2 1.98z" fill="#7F75D7"/><path fill-rule="evenodd" clip-rule="evenodd" d="M276 155v8a11 11 0 01-11 11H165v-2h100a9 9 0 009-9v-8h2zM651 163v-8h-2v8a9 9 0 01-9 9H540v2h100a11 11 0 0011-11z" fill="#B4B9D0"/><path fill-rule="evenodd" clip-rule="evenodd" d="M431 155v8a9 9 0 009 9h101v9a11 11 0 01-11 11H353v-2h177a9 9 0 009-9v-7h-99a11 11 0 01-11-11v-8h2z" fill="#B4B9D0"/><path fill-rule="evenodd" clip-rule="evenodd" d="M54 163v-8h2v8a9 9 0 009 9h101v9a9 9 0 009 9h179v19h-2v-17H175a11 11 0 01-11-11v-7H65a11 11 0 01-11-11z" fill="#B4B9D0"/></svg>